<svg xmlns="http://www.w3.org/2000/svg" width="34" height="28" fill="none" viewBox="0 0 34 28">
  <path fill="#A7A3F5" fill-rule="evenodd" d="m18.92.083 12.647 5.5a2.888 2.888 0 0 1 1.743 2.661v18.21a.969.969 0 0 1-1.357.887l-12.648-5.5a2.888 2.888 0 0 1-1.742-2.66V.97c0-.533.428-.971.97-.971.136 0 .261.032.386.083Z" clip-rule="evenodd"/>
  <path fill="#7B75F0" fill-rule="evenodd" d="m10.133.083 12.648 5.5a2.888 2.888 0 0 1 1.742 2.661v18.21a.969.969 0 0 1-1.357.887l-12.647-5.5a2.888 2.888 0 0 1-1.743-2.66V.97a.976.976 0 0 1 .97-.97c.137 0 .272.032.387.083Z" clip-rule="evenodd"/>
  <path fill="#5047EB" fill-rule="evenodd" d="m1.357.084 12.647 5.5a2.888 2.888 0 0 1 1.743 2.661v18.21a.969.969 0 0 1-1.357.887l-12.647-5.5A2.904 2.904 0 0 1 0 19.183V.971A.962.962 0 0 1 1.357.084Z" clip-rule="evenodd"/>
</svg>
